<svg width="19" height="15" viewBox="0 0 19 15" fill="none" xmlns="http://www.w3.org/2000/svg">
<path d="M16.4707 6.27576H10.918C10.7542 6.27576 10.6221 6.40822 10.6221 6.57138V10.2486C10.6221 10.4117 10.7545 10.5445 10.918 10.5445H16.4707C16.6343 10.5445 16.7667 10.4114 16.7667 10.2486V6.57138C16.7667 6.40822 16.6339 6.27576 16.4707 6.27576ZM16.1744 9.95226H11.2144V6.86804H16.1744V9.95226Z" fill="#3E9615"/>
<path d="M9.44669 7.19092C9.36183 7.18954 9.29457 7.24715 9.2887 7.32856C9.26835 7.63246 8.88718 7.81287 8.66192 7.89394C7.58705 8.2789 5.66083 8.07607 4.88021 7.24715C4.5494 6.89495 4.17167 6.72213 3.75152 6.73696C2.84671 6.76663 2.09851 7.6604 2.06712 7.698C2.01503 7.76147 2.024 7.85392 2.08678 7.90635C2.1499 7.9581 2.24373 7.94947 2.29547 7.88669C2.30237 7.87841 2.98883 7.05846 3.76152 7.03293C4.08888 7.02293 4.39451 7.16264 4.66461 7.44964C5.25275 8.07435 6.38075 8.37859 7.41492 8.37825C7.9082 8.37825 8.3801 8.30857 8.76196 8.17197C9.41151 7.93947 9.56777 7.59555 9.58433 7.34788C9.58985 7.26681 9.52844 7.1961 9.44669 7.19092Z" fill="#3E9615"/>
<path d="M9.44669 9.3569C9.36183 9.3531 9.29457 9.41347 9.2887 9.49488C9.26835 9.79878 8.88718 9.97919 8.66192 10.0599C7.58705 10.4456 5.66083 10.242 4.88021 9.41312C4.5494 9.06162 4.17167 8.88845 3.75152 8.90397C2.84671 8.93295 2.09851 9.82638 2.06712 9.86398C2.01503 9.92745 2.024 10.0202 2.08678 10.0727C2.1499 10.1244 2.24373 10.1158 2.29547 10.0523C2.30237 10.0444 2.98883 9.22444 3.76152 9.19891C4.08888 9.18822 4.39451 9.32827 4.66461 9.61527C5.25275 10.2403 6.38075 10.5442 7.41492 10.5442C7.9082 10.5442 8.3801 10.4745 8.76196 10.3379C9.41151 10.1054 9.56777 9.76153 9.58433 9.51351C9.58985 9.43313 9.52844 9.36242 9.44669 9.3569Z" fill="#3E9615"/>
<path d="M0.820298 14.9434H18.1797C18.6319 14.9434 19 14.5757 19 14.1234V3.42542C19 2.97284 18.6319 2.60512 18.1797 2.60512H11.2917V0.876563C11.2917 0.393974 11.0264 0.0566101 10.647 0.0566101H8.35338C7.97358 0.0566101 7.70866 0.393629 7.70866 0.876563V2.60512H0.820298C0.368065 2.60512 0 2.97284 0 3.42542V14.1238C0 14.5757 0.368065 14.9434 0.820298 14.9434ZM8.74524 1.09147H10.2565L10.2548 2.60512H8.74352L8.74524 1.09147ZM1.03486 3.63998H8.35303H10.6466H17.9651V13.9085H1.03486V3.63998Z" fill="#3E9615"/>
</svg>
