<svg width="26" height="17" viewBox="0 0 26 17" fill="none" xmlns="http://www.w3.org/2000/svg">
<path d="M17.4795 9.45312L15.2663 8.46948C15.11 8.40001 15.009 8.24457 15.009 8.07354V7.46579C15.7524 6.87343 16.2303 5.96124 16.2303 4.93901V4.0835C16.4752 3.94817 16.6374 3.68664 16.6374 3.39373V3.31071C16.6374 1.5295 15.1882 0.0803528 13.407 0.0803528H12.5929C10.8117 0.0803528 9.36252 1.5295 9.36252 3.31071V4.06405C9.36252 4.32151 9.47332 4.55475 9.66644 4.70399C9.6992 4.72928 9.73368 4.75153 9.76958 4.77077V4.93896C9.76958 5.96119 10.2474 6.87337 10.9908 7.46569V8.07349C10.9908 8.24452 10.8898 8.39996 10.7335 8.46943L8.52031 9.45307C7.7955 9.77517 7.32715 10.4959 7.32715 11.289V16.3369C7.32715 16.5472 7.49767 16.7177 7.70801 16.7177C7.91835 16.7177 8.08887 16.5472 8.08887 16.3369V11.2891C8.08887 11.2449 8.09202 11.2013 8.09659 11.1581L9.11638 12.1778C9.27507 12.3366 9.36252 12.5476 9.36252 12.7721V16.3369C9.36252 16.5473 9.53304 16.7178 9.74338 16.7178C9.95371 16.7178 10.1242 16.5473 10.1242 16.3369V12.7721C10.1242 12.3442 9.95762 11.9419 9.65502 11.6393L8.43926 10.4234C8.5488 10.3098 8.68022 10.2156 8.82972 10.1491L11.0055 9.1821L12.6191 10.7957V16.3369C12.6191 16.5472 12.7897 16.7177 13 16.7177C13.2103 16.7177 13.3808 16.5472 13.3808 16.3369V10.7957L14.9944 9.18215L17.1702 10.1491C17.3197 10.2156 17.4511 10.3098 17.5607 10.4235L16.3449 11.6393C16.0423 11.9419 15.8757 12.3442 15.8757 12.7721V16.3369C15.8757 16.5473 16.0462 16.7178 16.2565 16.7178C16.4669 16.7178 16.6374 16.5473 16.6374 16.3369V12.7721C16.6374 12.5476 16.7248 12.3366 16.8835 12.1778L17.9033 11.1581C17.9079 11.2014 17.911 11.2449 17.911 11.289V16.3369C17.911 16.5472 18.0815 16.7177 18.2919 16.7177C18.5022 16.7177 18.6727 16.5472 18.6727 16.3369V11.2891C18.6726 10.4959 18.2043 9.77522 17.4795 9.45312ZM12.9998 10.0994L11.584 8.68348C11.6917 8.50234 11.7524 8.29276 11.7524 8.07354V7.91856C12.1365 8.07994 12.5579 8.16937 12.9999 8.16937C13.4418 8.16937 13.8632 8.07999 14.2472 7.91861V8.07354C14.2472 8.29281 14.308 8.50234 14.4157 8.68353L12.9998 10.0994ZM12.9999 7.40759C11.6387 7.40765 10.5313 6.30021 10.5313 4.93901V4.76773C10.7689 4.67353 11.0009 4.52362 11.2229 4.31872C11.3775 4.17607 11.3872 3.93511 11.2445 3.78054C11.1018 3.62601 10.8609 3.61631 10.7063 3.75895C10.5158 3.93481 10.3255 4.04841 10.1407 4.09665C10.1363 4.09782 10.133 4.09833 10.1306 4.09853C10.1279 4.0932 10.1242 4.08202 10.1242 4.0641V3.31076C10.1242 1.94956 11.2316 0.842124 12.5928 0.842124H13.4069C14.7682 0.842124 15.8756 1.94956 15.8756 3.31076V3.39379C15.8756 3.40613 15.8682 3.41684 15.8584 3.41877C13.5778 3.8692 12.4339 3.02029 12.0479 2.63435C11.8992 2.48561 11.658 2.48561 11.5094 2.63435C11.3606 2.78309 11.3606 3.02425 11.5094 3.17294C12.692 4.35563 14.4179 4.37696 15.4685 4.25072V4.93896C15.4685 6.30015 14.3611 7.40759 12.9999 7.40759Z" fill="#029EDC"/>
<path d="M6.86777 7.38148V6.5672C6.86777 5.57362 6.35143 4.69896 5.57341 4.19561C5.62144 4.04149 5.64653 3.88006 5.64653 3.71771C5.64653 2.83432 4.92787 2.11566 4.04448 2.11566C3.16109 2.11566 2.44243 2.83437 2.44243 3.71771C2.44243 3.88209 2.46731 4.04195 2.51545 4.19572C1.73748 4.69901 1.22119 5.57367 1.22119 6.5672V7.38133C1.22119 8.34349 1.70529 9.19428 2.44238 9.70422V10.5418C2.44238 10.707 2.35062 10.8554 2.20289 10.9293L0.885576 11.588C0.339321 11.8612 0 12.4102 0 13.021V16.3369C0 16.5473 0.170524 16.7178 0.38086 16.7178C0.591196 16.7178 0.76172 16.5473 0.76172 16.3369V13.1857L1.38217 13.8061C1.54086 13.9649 1.6283 14.1759 1.6283 14.4004V16.3369C1.6283 16.5473 1.79883 16.7178 2.00916 16.7178C2.2195 16.7178 2.39002 16.5473 2.39002 16.3369V14.4004C2.39002 13.9724 2.22336 13.5702 1.9208 13.2676L1.05727 12.404C1.0531 12.3998 1.04863 12.3962 1.04437 12.3923C1.09855 12.3445 1.15934 12.3029 1.22627 12.2693L2.54359 11.6107C2.61108 11.5769 2.67389 11.5371 2.73244 11.4928L3.66362 12.424V16.337C3.66362 16.5473 3.83414 16.7178 4.04448 16.7178C4.25482 16.7178 4.42534 16.5473 4.42534 16.337V12.424L5.35657 11.4927C5.41517 11.5371 5.47794 11.5769 5.54542 11.6107L5.90866 11.7923C5.96336 11.8197 6.02145 11.8326 6.07873 11.8326C6.21843 11.8326 6.35295 11.7554 6.41968 11.622C6.51377 11.4339 6.4375 11.2051 6.24936 11.1111L5.88612 10.9294C5.73834 10.8555 5.64658 10.7071 5.64658 10.5419V9.70438C6.38367 9.19443 6.86777 8.34359 6.86777 7.38148ZM4.04448 2.87738C4.50786 2.87738 4.88481 3.25438 4.88481 3.71771C4.88481 3.76875 4.88024 3.81877 4.87151 3.86777C4.60978 3.78743 4.33216 3.74391 4.04448 3.74391C3.75721 3.74391 3.47994 3.78728 3.21862 3.86742C3.20984 3.81841 3.20415 3.76865 3.20415 3.71771C3.20415 3.25433 3.5811 2.87738 4.04448 2.87738ZM4.04448 4.50569C5.18122 4.50569 6.10605 5.43052 6.10605 6.56726V6.70528C4.5204 7.19075 3.57541 5.98454 3.53504 5.93168C3.46877 5.84337 3.36746 5.78812 3.25737 5.7803C3.14728 5.77258 3.03911 5.81285 2.96106 5.8909C2.59752 6.25444 2.24144 6.42979 1.98428 6.51444C2.01246 5.40203 2.92546 4.50569 4.04448 4.50569ZM4.04448 11.7276L3.16439 10.8475C3.19008 10.7493 3.20415 10.6469 3.20415 10.5418V10.0769C3.46969 10.1599 3.75198 10.2046 4.04448 10.2046C4.33698 10.2046 4.61927 10.1599 4.88481 10.0769V10.5418C4.88481 10.6469 4.89888 10.7493 4.92457 10.8475L4.04448 11.7276ZM4.04448 9.4429C2.90774 9.4429 1.98291 8.51807 1.98291 7.38133V7.30242C2.28663 7.23264 2.73696 7.0705 3.20674 6.69269C3.37295 6.8495 3.6105 7.04186 3.91301 7.20685C4.27081 7.402 4.76497 7.58253 5.36855 7.58253C5.59793 7.58253 5.84336 7.55587 6.1028 7.49462C6.04374 8.57891 5.14319 9.4429 4.04448 9.4429Z" fill="#029EDC"/>
<path d="M25.1147 10.7739L22.9832 9.7081C22.8355 9.63422 22.7438 9.48573 22.7438 9.32059V8.78084C23.2427 8.33787 23.5579 7.69234 23.5579 6.97429V6.54077C23.5667 6.54077 23.5753 6.54102 23.5841 6.54102C23.7944 6.54102 23.9649 6.3705 23.9649 6.16016V5.34604C23.9649 4.01374 22.881 2.92981 21.5487 2.92981H20.7346C19.4023 2.92981 18.3184 4.01374 18.3184 5.34604V6.16016C18.3184 6.3705 18.4889 6.54102 18.6992 6.54102C18.7024 6.54102 18.7115 6.54092 18.7254 6.54036V6.97429C18.7254 7.69239 19.0407 8.33792 19.5396 8.78089V9.32064C19.5396 9.48583 19.4478 9.63432 19.3001 9.70815C19.1119 9.8022 19.0356 10.031 19.1297 10.2191C19.1965 10.3526 19.331 10.4298 19.4707 10.4298C19.5279 10.4298 19.586 10.4168 19.6407 10.3895C19.7082 10.3557 19.771 10.3159 19.8296 10.2716L20.7608 11.2028V16.3369C20.7608 16.5473 20.9313 16.7178 21.1416 16.7178C21.352 16.7178 21.5225 16.5473 21.5225 16.3369V11.2027L22.4537 10.2715C22.5123 10.3158 22.5751 10.3557 22.6425 10.3894L24.705 11.4207L24.0795 12.0462C23.7769 12.3488 23.6102 12.7511 23.6102 13.1791V16.3368C23.6102 16.5472 23.7808 16.7177 23.9911 16.7177C24.2014 16.7177 24.372 16.5472 24.372 16.3368V13.1791C24.372 12.9546 24.4593 12.7436 24.6181 12.5848L25.2107 11.9922C25.2286 12.0612 25.2385 12.133 25.2385 12.2067V16.3368C25.2385 16.5472 25.409 16.7177 25.6193 16.7177C25.8297 16.7177 26.0002 16.5472 26.0002 16.3368V12.2067C26.0003 11.5961 25.6609 11.047 25.1147 10.7739ZM19.08 5.70095V5.34599H19.0801C19.0801 4.4337 19.8223 3.69148 20.7346 3.69148H21.5487C22.461 3.69148 23.2032 4.4337 23.2032 5.34599V5.76905C21.5476 5.67972 20.5485 5.03546 20.5388 5.02911C20.4743 4.98615 20.4008 4.96513 20.3276 4.96513C20.2293 4.96513 20.1318 5.00311 20.0582 5.07669C19.6938 5.4411 19.3367 5.6165 19.08 5.70095ZM21.1416 10.5063L20.2616 9.62624C20.2873 9.52803 20.3013 9.42566 20.3013 9.32059V9.23949C20.5631 9.33694 20.8463 9.39047 21.1416 9.39047C21.437 9.39047 21.7202 9.33694 21.982 9.23949V9.32059C21.982 9.42566 21.996 9.52803 22.0217 9.62624L21.1416 10.5063ZM21.1416 8.6288C20.2294 8.6288 19.4871 7.88663 19.4871 6.97429V6.36029C19.7539 6.2537 20.0647 6.08424 20.3809 5.8148C20.7809 6.0229 21.6177 6.38259 22.7962 6.50141V6.97429C22.7962 7.88658 22.0539 8.6288 21.1416 8.6288Z" fill="#029EDC"/>
</svg>
